External Loads File
version=1
nRows=46
nColumns=13
Range=5.000000e-03-10 seconds
endheader
time 	forceRightX 	forceRightY 	forceRightZ 	pointRightX 	pointRightY 	pointRightZ 	forceLeftX 	forceLeftY 	forceLeftZ 	pointLeftX 	pointLeftY 	pointLeftZ 		
5.005000 -36.762345 123.738247 -0.000000 0.311437 0.500274 -0.126288 117.824781 338.515309 -0.000000 0.295014 0.146850 -0.366562
5.010000 -35.020754 127.791422 -0.000000 0.320126 0.501287 -0.126262 120.780030 298.501021 -0.000000 0.285427 0.147557 -0.366281
5.015000 -33.658664 132.422639 -0.000000 0.328558 0.501105 -0.126220 121.477886 259.467212 -0.000000 0.276047 0.148858 -0.365963
5.020000 -32.611247 138.078977 -0.000000 0.336741 0.500110 -0.126225 120.226617 221.947382 -0.000000 0.266726 0.150864 -0.365739
5.025000 -32.025210 145.119293 -0.000000 0.344797 0.498367 -0.126182 117.058172 186.646829 -0.000000 0.257839 0.153158 -0.365466
5.030000 -31.783189 153.895711 -0.000000 0.352607 0.495716 -0.126021 112.519981 153.989543 -0.000000 0.249124 0.156468 -0.365107
5.035000 -31.993763 164.607576 -0.000000 0.360293 0.492324 -0.125766 106.879360 124.515041 -0.000000 0.240652 0.159836 -0.365122
5.040000 -32.546711 177.357925 -0.000000 0.367714 0.488194 -0.125516 100.636763 98.511318 -0.000000 0.232452 0.164289 -0.364873
5.045000 -33.486729 192.028423 -0.000000 0.374945 0.483356 -0.125143 94.156474 76.246378 -0.000000 0.224629 0.169187 -0.364340
5.050000 -34.610135 208.335226 -0.000000 0.382055 0.477681 -0.124878 87.901170 57.693002 -0.000000 0.217111 0.174672 -0.363780
5.055000 -35.900590 225.791346 -0.000000 0.388922 0.471184 -0.124494 82.192384 42.756628 -0.000000 0.209832 0.180758 -0.363497
5.060000 -37.321132 243.813564 -0.000000 0.395580 0.464048 -0.124310 77.323851 31.194757 -0.000000 0.202768 0.187651 -0.363559
5.065000 -39.511430 261.680906 -0.000000 0.401899 0.456394 -0.124232 73.481817 22.872847 -0.000000 0.196173 0.194622 -0.363887
5.070000 -41.568594 278.930415 -0.000000 0.408655 0.448019 -0.124016 70.952388 17.150675 -0.000000 0.190017 0.202408 -0.364024
5.075000 -44.650807 294.861678 -0.000000 0.414608 0.439364 -0.123900 69.752194 13.959844 -0.000000 0.184209 0.210491 -0.364066
5.080000 -48.525247 309.106301 -0.000000 0.419951 0.430267 -0.123719 69.930108 12.848439 -0.000000 0.178828 0.218897 -0.364225
5.085000 -52.507420 321.563811 -0.000000 0.425072 0.420267 -0.123811 71.459816 13.286886 -0.000000 0.173957 0.227618 -0.364299
5.090000 -57.149075 332.186910 -0.000000 0.429973 0.410426 -0.123935 74.214998 15.009124 -0.000000 0.169487 0.236769 -0.364182
5.095000 -62.794237 341.185886 -0.000000 0.433885 0.400657 -0.123778 78.046906 17.668150 -0.000000 0.165136 0.246189 -0.363252
5.100000 -68.530994 349.181990 -0.000000 0.437843 0.390350 -0.123968 82.832552 20.598777 -0.000000 0.161766 0.255994 -0.363305
5.105000 -74.353861 356.744606 -0.000000 0.441294 0.379589 -0.123977 88.344314 23.307204 -0.000000 0.158941 0.266084 -0.363243
5.110000 -80.400016 364.397977 -0.000000 0.444499 0.368730 -0.123903 94.247018 25.349521 -0.000000 0.156686 0.276398 -0.363249
5.115000 -86.799148 372.596048 -0.000000 0.446893 0.357827 -0.123873 100.122295 26.374434 -0.000000 0.155023 0.286932 -0.363236
5.120000 -93.134854 381.883546 -0.000000 0.448674 0.346730 -0.123841 105.574522 26.033290 -0.000000 0.153926 0.297669 -0.363232
5.125000 -99.348884 392.720349 -0.000000 0.449788 0.335360 -0.123759 110.219487 24.223690 -0.000000 0.153426 0.308475 -0.363153
5.130000 -105.554402 405.484912 -0.000000 0.450214 0.324096 -0.123759 113.706243 21.031959 -0.000000 0.153556 0.319518 -0.363131
5.135000 -111.810701 420.476807 -0.000000 0.450176 0.312872 -0.123567 115.743695 16.645954 -0.000000 0.154391 0.330544 -0.363134
5.140000 -117.754296 437.960772 -0.000000 0.449336 0.301593 -0.123732 116.145170 11.214686 -0.000000 0.155838 0.341506 -0.363045
5.145000 -121.967059 458.307622 -0.000000 0.448658 0.289452 -0.122537 114.836893 4.676807 -0.000000 0.157930 0.352448 -0.363112
5.150000 -126.036800 480.893765 -0.000000 0.445996 0.278333 -0.124547 111.806451 -2.215753 -0.000000 0.160727 0.363366 -0.363171
5.155000 -129.338921 505.472187 -0.000000 0.443476 0.267654 -0.124813 107.212531 -9.320554 -0.000000 0.164262 0.374144 -0.363180
5.160000 -131.415410 531.484409 -0.000000 0.440407 0.257396 -0.124900 101.259022 -16.477483 -0.000000 0.168501 0.384424 -0.363121
5.165000 -129.709153 558.615222 -0.000000 0.436473 0.247081 -0.125480 94.070753 -23.899959 -0.000000 0.173178 0.394765 -0.362952
5.170000 -125.608947 585.380543 -0.000000 0.432403 0.237147 -0.124605 85.890397 -31.080758 -0.000000 0.178412 0.404613 -0.362961
5.175000 -117.618606 610.863082 -0.000000 0.427495 0.227714 -0.124614 76.852177 -38.118460 -0.000000 0.184244 0.414196 -0.362925
5.180000 -104.931088 633.859290 -0.000000 0.421940 0.218378 -0.124634 67.084199 -45.011781 -0.000000 0.190540 0.423536 -0.363015
5.185000 -88.740357 652.769722 -0.000000 0.415761 0.209505 -0.124715 56.834914 -51.561196 -0.000000 0.197008 0.432415 -0.362339
5.190000 -67.999432 666.352548 -0.000000 0.409126 0.201349 -0.124753 46.158727 -57.809225 -0.000000 0.204707 0.440917 -0.363161
5.195000 -44.472842 673.053389 -0.000000 0.402090 0.193547 -0.124741 35.290028 -63.521124 -0.000000 0.212519 0.448941 -0.362559
5.200000 -18.857394 671.668595 -0.000000 0.394530 0.186207 -0.124806 24.375510 -68.516030 -0.000000 0.220409 0.456530 -0.362529
5.205000 7.847224 661.247391 -0.000000 0.386591 0.179416 -0.125003 13.593906 -72.582797 -0.000000 0.228611 0.463539 -0.362527
5.210000 34.651929 641.262841 -0.000000 0.378272 0.173240 -0.125108 3.111559 -75.578044 -0.000000 0.237122 0.470054 -0.362329
5.215000 59.917784 611.809839 -0.000000 0.369663 0.167824 -0.125279 -6.854347 -77.465552 -0.000000 0.245882 0.475882 -0.362313
5.220000 82.842837 573.615637 -0.000000 0.360792 0.163126 -0.125497 -16.222019 -78.322579 -0.000000 0.255012 0.481057 -0.362497
5.225000 101.954697 528.125769 -0.000000 0.351688 0.158859 -0.125696 -24.848015 -78.307929 -0.000000 0.264124 0.485520 -0.362547
5.230000 116.696118 477.149957 -0.000000 0.342338 0.155266 -0.125804 -32.686788 -77.582146 -0.000000 0.273248 0.489438 -0.362653
